<?xml version="1.0" encoding="utf-8"?>
<!-- Generator: Adobe Illustrator 25.0.1, SVG Export Plug-In . SVG Version: 6.00 Build 0)  -->
<svg version="1.0" id="katman_1" xmlns="http://www.w3.org/2000/svg" xmlns:xlink="http://www.w3.org/1999/xlink" x="0px" y="0px"
	 viewBox="0 0 600 400" style="enable-background:new 0 0 600 400;" xml:space="preserve">
<style type="text/css">
	.st0{clip-path:url(#SVGID_2_);fill-rule:evenodd;clip-rule:evenodd;fill:#D61F26;}
	.st1{fill-rule:evenodd;clip-rule:evenodd;fill:#D61F26;}
</style>
<g>
	<g>
		<defs>
			<rect id="SVGID_1_" x="48" y="157.4" width="504" height="85.3"/>
		</defs>
		<clipPath id="SVGID_2_">
			<use xlink:href="#SVGID_1_"  style="overflow:visible;"/>
		</clipPath>
		<path class="st0" d="M141.6,197.2L141.6,197.2l-11,4.5l-0.3,0.2l-2.7,12.2c-0.2,0.4-0.7,0.5-1.1,0.2l-8-9.4l0,0L73.7,224
			c-0.3,0.2-0.6-0.3-0.3-0.5l38.8-29l-4.9-11.2c-0.2-0.5,0.2-1.1,0.8-0.9l11.9,2.9l9.2-8.2c0.4-0.3,0.9-0.1,1,0.4l0.9,12.3l10.6,6.2
			C142.2,196.4,142.1,197,141.6,197.2L141.6,197.2z M136.2,162c-13.8-5.4-28.9-1.3-38.3,9l-36.4,39c-0.5,0.5-0.3,1.2,0.3,1.3
			l9.7,0.6c0.8,0,0.9,0.7,0.5,1.2l-23.7,25.6c-0.4,0.4,0.1,1.1,0.7,1L82.8,229c0.7-0.3,1.3,0.4,1,1l-4.5,8c-0.2,0.5,0.2,1.1,0.8,1
			l48.9-10.9c11.7-1.8,22.1-9.6,26.7-21.4C162.6,188.9,153.9,168.9,136.2,162L136.2,162z M136.2,162"/>
	</g>
	<polyline class="st1" points="267.1,221.4 256,221.4 264.7,180.6 276.9,176.1 267.1,221.4 	"/>
	<path class="st1" d="M243.2,198c-2.7,0-4.2,2.2-4.8,4.8c5.3,0,6.9-1.7,6.9-3C245.3,198.8,244.4,198,243.2,198 M237.2,209.9
		c-0.1,0.3-0.1,0.8-0.1,1.1c0,1.8,1.2,2.4,4.5,2.4c3,0,7.1-0.7,9.6-1.6v8.3c-3.1,1.1-8,1.8-11.9,1.8c-9.2,0-13.6-2.5-13.6-10.8
		c0-8.2,3.8-20.9,18.4-20.9c9.3,0,12.1,4.2,12.1,8.6C256.1,204.5,251.2,209.4,237.2,209.9"/>
	<path class="st1" d="M287.4,188.7c-3.8,0-6.2-2.4-6.2-5.8c0-4.4,3.1-6.8,6.9-6.8c3.9,0,6.2,2.4,6.2,5.7
		C294.2,186.3,291.2,188.7,287.4,188.7"/>
	<polyline class="st1" points="279.5,191.2 291,191.2 285.2,220.9 273.6,220.9 277.7,200.1 	"/>
	<path class="st1" d="M324,191.2c-4,10-8.3,19.7-13.9,29.7h-14.2c-1.8-9.4-2.6-19.4-2.4-29.7h11.6c-0.2,4.8-0.2,9.7,0.1,14.5
		c0.1,1.3,0.2,2.4,0.3,3.6h0.1c0.5-1.2,1.1-2.4,1.6-3.6c2-4.9,3.8-10.2,5.2-14.5H324"/>
	<path class="st1" d="M339.5,198c-2.7,0-4.2,2.2-4.8,4.8c5.3,0,6.9-1.7,6.9-3C341.5,198.8,340.7,198,339.5,198 M333.4,209.9
		c-0.1,0.3-0.1,0.7-0.1,1.1c0,1.8,1.3,2.4,4.5,2.4c3,0,7.1-0.7,9.6-1.6v8.3c-3.1,1.1-8,1.8-11.9,1.8c-9.2,0-13.6-2.5-13.6-10.8
		c0-8.2,3.8-20.9,18.4-20.9c9.3,0,12.1,4.2,12.1,8.6C352.4,204.5,347.5,209.4,333.4,209.9"/>
	<path class="st1" d="M374.7,201.7c-0.9-0.2-1.8-0.3-2.8-0.3c-2.6,0-4.6,2.6-5.5,7.3l-2.4,12.3h-11.6l5.8-29.7h8.7l0.3,4
		c2.7-3.3,4.8-5,8-5c1.5,0,2.3,0.1,2.7,0.2L374.7,201.7"/>
	<path class="st1" d="M410.9,191.2c-5.1,13.3-9.6,23-14.2,29.7c-6.6,9.8-12.4,12.1-18.3,12.1c-1.8,0-3.6-0.5-4.5-0.9l1.8-8.6h4
		c2,0,2.8-0.8,4.1-2.5c-2.2-8-3.3-19.2-3.2-29.7h11.6c-0.2,4.8-0.2,9.6,0.1,14.3c0.1,1.3,0.2,2.6,0.3,3.8h0.1
		c0.5-1.2,1.1-2.4,1.6-3.7c1.9-4.7,3.6-9.6,5-14.5H410.9"/>
	<polyline class="st1" points="455.4,220.9 443.2,220.9 446.1,206 435.7,206 432.8,220.9 420.6,220.9 428.3,181.3 440.6,181.3 
		437.8,195.5 448.1,195.5 450.9,181.3 463.1,181.3 455.4,220.9 	"/>
	<path class="st1" d="M479.4,198c-2.7,0-4.2,2.2-4.8,4.8c5.3,0,6.9-1.7,6.9-3C481.5,198.8,480.6,198,479.4,198 M473.3,209.9
		c-0.1,0.3-0.1,0.7-0.1,1.1c0,1.8,1.3,2.4,4.5,2.4c3,0,7.2-0.7,9.6-1.6v8.3c-3.1,1.1-8,1.8-11.9,1.8c-9.2,0-13.6-2.5-13.6-10.8
		c0-8.2,3.8-20.9,18.4-20.9c9.3,0,12.1,4.2,12.1,8.6C492.4,204.5,487.4,209.4,473.3,209.9"/>
	<path class="st1" d="M514.6,201.7c-0.9-0.2-1.8-0.3-2.8-0.3c-2.5,0-4.6,2.6-5.5,7.3l-2.4,12.3h-11.6l5.8-29.7h8.7l0.3,4
		c2.7-3.3,4.8-5,8-5c1.5,0,2.3,0.1,2.7,0.2L514.6,201.7"/>
	<path class="st1" d="M533.6,199.3c-4.6,0-5.9,7.1-5.9,10.3c0,2.5,1.1,3.3,3.2,3.3c4.6,0,5.8-7.1,5.8-10.3
		C536.7,200.1,535.6,199.3,533.6,199.3 M529.3,222c-9,0-13.4-3.9-13.4-11.6c0-8.6,4.2-20.2,19.2-20.2c9,0,13.4,4,13.4,11.6
		C548.5,210.5,544.3,222,529.3,222"/>
	<path class="st1" d="M200.8,211.5h-2.3l4.1-20.9h3.2c4.8,0,6.6,2.8,6.6,6.8C212.3,205.3,208,211.5,200.8,211.5 M211.6,191.4
		l7.7-7.4c-3-1.8-7.1-2.6-12.3-2.6h-14.8l-7.7,39.6h15.4c17.9,0,25-12.5,25-25.5c0-3.4-0.7-6.1-2.1-8.2L211.6,191.4"/>
</g>
</svg>
